<svg width="18" height="20" fill="none" xmlns="http://www.w3.org/2000/svg"><path d="M2.73 4.884c.767.558 1.965.84 3.128.891.081.004.162.005.243.006l-.006.003h4.978-.002c1.26-.012 2.61-.29 3.448-.9 1.367-.994 1.191-2.547.33-3.795-.863-1.248-2.67-1.454-4.037-.46-.802.584-1.793 1.997-2.188 3.16C8.23 2.627 7.24 1.214 6.436.63c-1.367-.994-3.173-.788-4.035.46-.862 1.248-1.038 2.8.329 3.795zm8.165-3.155c.857-.624 1.99-.495 2.53.288.54.782.651 1.756-.206 2.379s-2.57.696-3.493.386c-.888-.299.312-2.43 1.17-3.053zm-7.072.288c.54-.783 1.674-.912 2.53-.288.858.623 2.058 2.754 1.17 3.053-.924.31-2.636.237-3.493-.386-.857-.623-.747-1.597-.207-2.38zM1.47 18.622c.028.492.43.875.914.875h5.16V10.87h-6.53l.455 7.752zm8.231.875h5.16a.922.922 0 00.915-.875l.456-7.752h-6.53v8.627zM16.39 6.492H9.701V9.97h7.545V7.36a.862.862 0 00-.855-.869zM0 7.361V9.97h7.545V6.492H.856a.863.863 0 00-.856.87z" fill="#fff"/></svg>