<svg width="113" height="113" fill="none" xmlns="http://www.w3.org/2000/svg"><path fill-rule="evenodd" clip-rule="evenodd" d="M56.5 113c31.204 0 56.5-25.296 56.5-56.5S87.704 0 56.5 0 0 25.296 0 56.5 25.296 113 56.5 113zm0-4c29.271 0 53-23.505 53-52.5S85.771 4 56.5 4s-53 23.505-53 52.5 23.729 52.5 53 52.5z" fill="url(#paint0_linear)"/><path d="M43.065 41.752H41.16v-1.904c0-.728-.616-1.344-1.344-1.344-.728 0-1.344.616-1.344 1.344v1.904h-1.904c-.728 0-1.344.616-1.344 1.344 0 .728.616 1.344 1.344 1.344h1.904v1.904c0 .728.616 1.344 1.344 1.344.728 0 1.344-.616 1.344-1.344V44.44h1.904c.728 0 1.344-.616 1.344-1.344 0-.728-.616-1.344-1.344-1.344z" fill="url(#paint1_linear)" stroke="url(#paint2_linear)" stroke-width=".7"/><path d="M50.289 43.096c0-5.768-4.704-10.416-10.416-10.416-5.768 0-10.416 4.704-10.416 10.416 0 5.712 4.704 10.416 10.416 10.416 5.712 0 10.416-4.648 10.416-10.416zm-10.472 7.896a7.887 7.887 0 01-7.896-7.896c0-4.368 3.584-7.896 7.896-7.896a7.887 7.887 0 017.896 7.896 7.887 7.887 0 01-7.896 7.896z" fill="url(#paint3_linear)" stroke="url(#paint4_linear)" stroke-width=".7"/><path d="M74.93 41.752h-5.488c-.728 0-1.344.616-1.344 1.344 0 .728.616 1.344 1.344 1.344h5.488c.728 0 1.344-.616 1.344-1.344-.056-.728-.616-1.344-1.344-1.344z" fill="url(#paint5_linear)" stroke="url(#paint6_linear)" stroke-width=".7"/><path d="M72.186 32.624c-5.769 0-10.417 4.704-10.417 10.416 0 5.712 4.705 10.416 10.417 10.416 5.711 0 10.415-4.704 10.415-10.416 0-5.712-4.704-10.416-10.415-10.416zm0 18.368a7.887 7.887 0 01-7.897-7.896 7.887 7.887 0 017.897-7.896 7.887 7.887 0 017.895 7.896c0 4.368-3.584 7.896-7.895 7.896z" fill="url(#paint7_linear)" stroke="url(#paint8_linear)" stroke-width=".7"/><path d="M74.704 66.672a4.68 4.68 0 00-2.184.56 4.716 4.716 0 00-4.144-2.464 4.68 4.68 0 00-2.184.56 4.716 4.716 0 00-4.144-2.464c-.56 0-1.12.112-1.624.28v-8.96a4.7 4.7 0 00-1.4-3.36c-.896-.896-2.072-1.456-3.36-1.4-2.576 0-4.704 2.128-4.704 4.704v20.608l-2.128-2.128c-1.624-1.624-4.144-1.848-5.992-.56-1.12.728-1.848 1.96-2.072 3.248-.168 1.344.168 2.688 1.064 3.696l4.872 5.768c.28.336.728.56 1.176.56.336 0 .672-.112 1.008-.336.672-.56.728-1.512.168-2.184l-4.816-5.768c-.336-.392-.448-.84-.392-1.344.056-.504.336-.896.728-1.176.672-.448 1.568-.392 2.128.224l3.472 3.472c.672.672 1.624.84 2.464.504.84-.336 1.4-1.176 1.4-2.128v-22.4c0-.896.728-1.624 1.624-1.624.448 0 .84.168 1.176.504.336.336.504.728.504 1.176v15.4c0 .84.672 1.512 1.512 1.512s1.512-.672 1.512-1.512v-2.128a1.625 1.625 0 013.248 0v4.032c0 .84.672 1.512 1.512 1.512s1.512-.672 1.512-1.512v-2.128c0-.896.728-1.624 1.624-1.624.896 0 1.736.728 1.736 1.624v4.032c0 .84.672 1.512 1.512 1.512s1.512-.672 1.512-1.512V71.32a1.625 1.625 0 013.248 0v12.488c0 .84.672 1.512 1.512 1.512s1.512-.672 1.512-1.512V71.32c.112-2.576-1.96-4.648-4.592-4.648z" fill="url(#paint9_linear)" stroke="url(#paint10_linear)" stroke-width=".7"/><defs><linearGradient id="paint0_linear" x1="56.5" y1="0" x2="35.64" y2="118.375" gradientUnits="userSpaceOnUse"><stop stop-color="#50CFFA"/><stop offset=".999" stop-color="#52A2ED"/></linearGradient><linearGradient id="paint1_linear" x1="39.817" y1="38.504" x2="38.121" y2="48.125" gradientUnits="userSpaceOnUse"><stop stop-color="#50CFFA"/><stop offset=".999" stop-color="#52A2ED"/></linearGradient><linearGradient id="paint2_linear" x1="39.817" y1="38.504" x2="39.817" y2="47.688" gradientUnits="userSpaceOnUse"><stop stop-color="#50CFFA"/><stop offset="1" stop-color="#51A5EE"/></linearGradient><linearGradient id="paint3_linear" x1="39.873" y1="32.68" x2="36.027" y2="54.503" gradientUnits="userSpaceOnUse"><stop stop-color="#50CFFA"/><stop offset=".999" stop-color="#52A2ED"/></linearGradient><linearGradient id="paint4_linear" x1="39.873" y1="32.68" x2="39.873" y2="53.512" gradientUnits="userSpaceOnUse"><stop stop-color="#50CFFA"/><stop offset="1" stop-color="#51A5EE"/></linearGradient><linearGradient id="paint5_linear" x1="72.186" y1="41.752" x2="72.018" y2="44.645" gradientUnits="userSpaceOnUse"><stop stop-color="#50CFFA"/><stop offset=".999" stop-color="#52A2ED"/></linearGradient><linearGradient id="paint6_linear" x1="72.186" y1="41.752" x2="72.186" y2="44.44" gradientUnits="userSpaceOnUse"><stop stop-color="#50CFFA"/><stop offset="1" stop-color="#51A5EE"/></linearGradient><linearGradient id="paint7_linear" x1="72.186" y1="32.624" x2="68.34" y2="54.447" gradientUnits="userSpaceOnUse"><stop stop-color="#50CFFA"/><stop offset=".999" stop-color="#52A2ED"/></linearGradient><linearGradient id="paint8_linear" x1="72.186" y1="32.624" x2="72.186" y2="53.456" gradientUnits="userSpaceOnUse"><stop stop-color="#50CFFA"/><stop offset="1" stop-color="#51A5EE"/></linearGradient><linearGradient id="paint9_linear" x1="60.014" y1="49.42" x2="53.821" y2="87.18" gradientUnits="userSpaceOnUse"><stop stop-color="#50CFFA"/><stop offset=".999" stop-color="#52A2ED"/></linearGradient><linearGradient id="paint10_linear" x1="60.014" y1="49.42" x2="60.014" y2="85.32" gradientUnits="userSpaceOnUse"><stop stop-color="#50CFFA"/><stop offset="1" stop-color="#51A5EE"/></linearGradient></defs></svg>