<svg width="11" height="11" viewBox="0 0 11 11" fill="none" xmlns="http://www.w3.org/2000/svg">
<path d="M5.09885 0.261102L4.00945 3.60697C3.95404 3.72448 3.84706 3.80583 3.72331 3.82464L0.383478 3.84826C0.016633 3.9041 -0.129941 4.37619 0.135569 4.64707L2.80207 6.79319C2.89159 6.8846 2.93256 7.0164 2.91139 7.14543L1.9368 10.4513C1.8741 10.8339 2.25758 11.1257 2.58579 10.945L5.32311 8.98027C5.43379 8.91933 5.56607 8.91933 5.67689 8.98027L8.41421 10.9452C8.74242 11.1258 9.1259 10.8341 9.0632 10.4515L8.08861 7.14558C8.06744 7.01655 8.10828 6.88475 8.19792 6.79333L10.8644 4.64722C11.1299 4.37633 10.9834 3.90424 10.6165 3.84841L7.27669 3.82479C7.15294 3.80598 7.04583 3.72448 6.99055 3.60711L5.90115 0.261248C5.73698 -0.0870583 5.26288 -0.0870582 5.09885 0.261102Z" fill="#37BC94"/>
</svg>
