<svg width="65" height="70" fill="none" xmlns="http://www.w3.org/2000/svg"><path fill-rule="evenodd" clip-rule="evenodd" d="M62.453 47.664c0 .664-.466 1.205-1.039 1.205H51.206c-2.489 0-4.513-2.348-4.513-5.234s2.025-5.234 4.513-5.234h10.208c.573 0 1.04.54 1.04 1.205v8.058zm-3.35 19.382H7.307c-2.626 0-4.761-2.478-4.761-5.523V20.995A7.096 7.096 0 005.1 22.649l.014.005c.103.038.208.073.313.105l.03.01c.1.03.202.058.305.084l.036.009c.102.025.204.047.307.067l.037.007a6.362 6.362 0 00.67.088l.017.002h.008l.038.004h.013a6.826 6.826 0 00.42.016h51.793v12.4h-7.896c-3.893 0-7.06 3.674-7.06 8.189 0 4.515 3.167 8.189 7.06 8.189h7.896v15.222zm-51.796-58H27.54l-5.271 2.727-15.882 8.214a4.294 4.294 0 01-.189-.048l-.02-.006a4.402 4.402 0 01-.17-.052l-.043-.015a4.153 4.153 0 01-.155-.056l-.052-.02c-.05-.02-.1-.04-.148-.063l-.052-.023a4.496 4.496 0 01-.147-.07l-.04-.022a4.584 4.584 0 01-.67-.424l-.014-.012a4.434 4.434 0 01-.143-.114l-.03-.025a4.905 4.905 0 01-.135-.118l-.03-.028a4.932 4.932 0 01-.29-.291l-.005-.005a5.52 5.52 0 01-.87-1.27c0-.003-.002-.005-.003-.008a5.767 5.767 0 01-.096-.201v-.002a6.032 6.032 0 01-.358-1.046l-.018-.07-.032-.152a5.41 5.41 0 01-.081-.49l-.017-.148-.01-.107a6.312 6.312 0 01-.012-.185l-.004-.077a6.525 6.525 0 01-.006-.27v-.002c0-3.044 2.136-5.52 4.76-5.52zm41.339 4.76l2.416 6.286H12.439l10.605-5.486L44.657 3.428l3.989 10.377zm.959-4.76h4.333v11.046h-.088l-3.814-9.924-.431-1.122zm12.044 26.41V21.57c0-.816-.57-1.477-1.273-1.477h-3.892V7.922c0-1.01-.708-1.83-1.578-1.83H48.47L46.465.875a1.377 1.377 0 00-.707-.778 1.111 1.111 0 00-.975.03l-11.53 5.964H7.306C3.278 6.092 0 9.895 0 14.57v46.954C0 66.197 3.278 70 7.308 70h53.068c.703 0 1.273-.661 1.273-1.477v-16.71c1.868-.14 3.351-1.947 3.351-4.15v-8.057c0-2.202-1.483-4.01-3.351-4.15zm-9.388 5.489c-1.279 0-2.319 1.207-2.319 2.69 0 1.483 1.04 2.69 2.32 2.69 1.278 0 2.318-1.207 2.318-2.69 0-1.483-1.04-2.69-2.319-2.69zm-25.896-3.741c2.619-2.84 6.883-2.552 6.953-2.547.7.057 1.308-.555 1.359-1.368.05-.814-.477-1.52-1.179-1.58-.22-.017-5.406-.404-8.857 3.32-1.053 1.137-1.822 2.52-2.308 4.132h-2.122c-.704 0-1.274.661-1.274 1.477 0 .816.57 1.477 1.273 1.477h1.573a18.769 18.769 0 00-.05 2.463H20.21c-.703 0-1.273.661-1.273 1.477 0 .816.57 1.477 1.273 1.477h1.911c.459 1.953 1.3 3.598 2.52 4.915 2.808 3.03 6.765 3.34 8.26 3.34.343 0 .556-.017.597-.02.702-.059 1.23-.766 1.179-1.58-.05-.813-.66-1.425-1.362-1.367-.043.004-4.291.323-6.939-2.536-.696-.75-1.221-1.671-1.575-2.752h6.28c.704 0 1.274-.66 1.274-1.477 0-.816-.57-1.477-1.274-1.477h-6.798a14.744 14.744 0 01.063-2.463h6.735c.704 0 1.274-.661 1.274-1.477 0-.816-.57-1.477-1.274-1.477H25.1a7.062 7.062 0 011.265-1.957z" fill="url(#paint0_linear)"/><defs><linearGradient id="paint0_linear" x1="46.751" y1="4.864" x2="30.344" y2="74.355" gradientUnits="userSpaceOnUse"><stop stop-color="#fff" stop-opacity=".599"/><stop offset="1" stop-color="#fff"/></linearGradient></defs></svg>