<svg width="113" height="113" fill="none" xmlns="http://www.w3.org/2000/svg"><path fill-rule="evenodd" clip-rule="evenodd" d="M56.5 113c31.204 0 56.5-25.296 56.5-56.5S87.704 0 56.5 0 0 25.296 0 56.5 25.296 113 56.5 113zm0-4c29.271 0 53-23.505 53-52.5S85.771 4 56.5 4s-53 23.505-53 52.5 23.729 52.5 53 52.5z" fill="url(#paint0_linear)"/><path d="M51.899 56.462h.772c5.013 0 9.092-4.08 9.092-9.093v-6.276c0-5.014-4.079-9.093-9.092-9.093h-.772c-5.015 0-9.094 4.079-9.094 9.093v6.275c-.001 5.015 4.078 9.094 9.094 9.094zm-6.355-15.37a6.36 6.36 0 016.354-6.352h.772a6.36 6.36 0 016.353 6.353v6.275a6.36 6.36 0 01-6.353 6.354h-.772a6.361 6.361 0 01-6.354-6.354v-6.275zm25.56 24.677c-1.434-.999-9.036-5.964-18.545-6.06a3.32 3.32 0 00-.4 0c-9.512.096-17.112 5.061-18.543 6.059-.446.31-.914.685-1.304 1.548-.292.65-.315 1.568-.312 1.918v7.051c0 .756.614 1.37 1.37 1.37h37.978a1.37 1.37 0 001.37-1.37v-7.038c.004-.364-.019-1.283-.314-1.932-.385-.858-.853-1.233-1.3-1.546zM34.74 74.915V69.22c-.003-.252.032-.664.07-.776.11-.244.145-.269.372-.427.81-.565 8.17-5.516 17.11-5.569h.134c8.939.053 16.301 5.004 17.11 5.567.228.16.263.185.364.41.043.12.081.509.08.81v5.681H34.74zM90.22 47.07h-8.219v-8.22a1.37 1.37 0 00-2.74 0v8.22h-8.22a1.37 1.37 0 000 2.74h8.22v8.219a1.37 1.37 0 002.74 0v-8.22h8.22a1.37 1.37 0 000-2.74z" fill="url(#paint1_linear)" stroke="url(#paint2_linear)" stroke-width="1.4"/><defs><linearGradient id="paint0_linear" x1="56.5" y1="0" x2="35.64" y2="118.375" gradientUnits="userSpaceOnUse"><stop stop-color="#50CFFA"/><stop offset=".999" stop-color="#52A2ED"/></linearGradient><linearGradient id="paint1_linear" x1="61.795" y1="32" x2="55.257" y2="80.429" gradientUnits="userSpaceOnUse"><stop stop-color="#50CFFA"/><stop offset=".999" stop-color="#52A2ED"/></linearGradient><linearGradient id="paint2_linear" x1="61.795" y1="32" x2="61.795" y2="77.655" gradientUnits="userSpaceOnUse"><stop stop-color="#50CFFA"/><stop offset="1" stop-color="#51A5EE"/></linearGradient></defs></svg>