<svg width="34" height="34" fill="none" xmlns="http://www.w3.org/2000/svg"><path d="M17 0C7.623 0 0 7.623 0 17c0 9.377 7.623 17 17 17 9.377 0 17-7.623 17-17 0-9.377-7.623-17-17-17zm0 27.307a1.833 1.833 0 01-1.825-1.825c0-1.002.823-1.825 1.825-1.825s1.825.823 1.825 1.825A1.81 1.81 0 0117 27.307zm1.79-9.377c-.18.072-.323.287-.323.537v1.826c0 .787-.644 1.431-1.431 1.431a1.436 1.436 0 01-1.432-1.431v-1.826c0-1.503.93-2.827 2.326-3.292 1.182-.394 2.22-1.61 1.933-3.257a2.905 2.905 0 00-2.29-2.29c-.86-.144-1.718.07-2.363.608a2.828 2.828 0 00-1.073 2.219c0 .787-.644 1.431-1.432 1.431a1.436 1.436 0 01-1.431-1.431 5.72 5.72 0 012.04-4.402A5.61 5.61 0 0118.038 6.8c2.326.394 4.223 2.326 4.617 4.617.5 2.899-1.11 5.619-3.866 6.513z" fill="url(#paint0_linear)"/><defs><linearGradient id="paint0_linear" x1="24.454" y1="2.362" x2="17" y2="36.362" gradientUnits="userSpaceOnUse"><stop stop-color="#50D3FB"/><stop offset="1" stop-color="#528EE7"/></linearGradient></defs></svg>