<svg width="27" height="31" fill="none" xmlns="http://www.w3.org/2000/svg"><path d="M2.01 10a1.97 1.97 0 00-1.425.567c-.39.378-.585.831-.585 1.36v8.126c0 .543.195 1.002.585 1.38.39.378.865.567 1.425.567a1.94 1.94 0 001.414-.567c.384-.378.576-.837.576-1.38v-8.126c0-.529-.195-.982-.585-1.36A1.948 1.948 0 002.01 10zm15.671-7.362L18.986.379c.085-.15.055-.264-.092-.344-.16-.07-.282-.035-.367.103l-1.324 2.276a9.547 9.547 0 00-3.694-.725c-1.299 0-2.53.242-3.694.725L8.492.138C8.406 0 8.283-.035 8.124.035c-.147.08-.177.195-.091.344l1.305 2.259C8.014 3.27 6.96 4.152 6.176 5.284 5.392 6.417 5 7.654 5 9h17c0-1.345-.392-2.583-1.176-3.716-.785-1.132-1.832-2.013-3.143-2.646zm-7.545 3.284a.712.712 0 01-.505.199.679.679 0 01-.496-.199.64.64 0 01-.202-.474.64.64 0 01.202-.474.682.682 0 01.496-.198c.196 0 .364.066.505.198.141.133.212.29.212.474a.63.63 0 01-.212.474zm7.747 0a.68.68 0 01-.496.199.711.711 0 01-.506-.199.626.626 0 01-.211-.474c0-.184.07-.341.211-.474a.713.713 0 01.506-.198c.196 0 .36.066.496.198a.64.64 0 01.202.474.64.64 0 01-.202.474zM5 22.645c0 .583.197 1.077.592 1.481.396.405.877.608 1.445.608h1.37l.02 4.31c0 .544.184 1.007.555 1.386.37.38.815.57 1.333.57.53 0 .981-.19 1.352-.57.37-.38.555-.841.555-1.386v-4.31h2.556v4.31c0 .544.185 1.007.555 1.386.37.38.821.57 1.352.57.53 0 .982-.19 1.352-.57.37-.38.556-.841.556-1.386v-4.31h1.389c.555 0 1.03-.202 1.426-.607A2.04 2.04 0 0022 22.646V10H5v12.645zM24.99 10a1.97 1.97 0 00-1.405.557 1.82 1.82 0 00-.585 1.37v8.126c0 .543.195 1.002.585 1.38.39.378.86.567 1.405.567.56 0 1.034-.189 1.425-.567.39-.378.585-.837.585-1.38v-8.126a1.82 1.82 0 00-.585-1.37A1.991 1.991 0 0024.99 10z" fill="#fff"/></svg>