<svg width="113" height="113" fill="none" xmlns="http://www.w3.org/2000/svg"><path fill-rule="evenodd" clip-rule="evenodd" d="M56.5 113c31.204 0 56.5-25.296 56.5-56.5S87.704 0 56.5 0 0 25.296 0 56.5 25.296 113 56.5 113zm0-4c29.271 0 53-23.505 53-52.5S85.771 4 56.5 4s-53 23.505-53 52.5 23.729 52.5 53 52.5z" fill="url(#paint0_linear)"/><path d="M40.41 35.008a1.28 1.28 0 00-.897.384L28.505 46.464a1.28 1.28 0 00-.384.896v23.872a5.76 5.76 0 005.76 5.76h42.24a5.76 5.76 0 005.76-5.76V40.768a5.76 5.76 0 00-5.76-5.76H40.41zm35.711 2.56a3.2 3.2 0 013.2 3.2v30.464a3.2 3.2 0 01-3.2 3.2h-42.24a3.2 3.2 0 01-3.2-3.2v-23.36l10.304-10.304h35.136z" fill="url(#paint1_linear)" stroke="url(#paint2_linear)" stroke-width="1.4"/><path d="M56.856 70.4h15.872a1.28 1.28 0 001.28-1.28v-25.6a1.28 1.28 0 00-1.28-1.28H56.856a1.28 1.28 0 00-1.28 1.28v25.6a1.28 1.28 0 001.28 1.28zm1.28-2.56V44.8h13.312v23.04H58.136z" fill="url(#paint3_linear)" stroke="url(#paint4_linear)" stroke-width="1.4"/><path d="M41.562 59.28a1.28 1.28 0 00-1.28-1.28h-3.52a1.28 1.28 0 100 2.56h3.52a1.28 1.28 0 001.28-1.28z" fill="url(#paint5_linear)" stroke="url(#paint6_linear)" stroke-width="1.4"/><path d="M41.56 50.28A1.28 1.28 0 0040.28 49h-3.52a1.28 1.28 0 100 2.56h3.52a1.28 1.28 0 001.28-1.28z" fill="url(#paint7_linear)" stroke="url(#paint8_linear)" stroke-width="1.4"/><path d="M41.562 68.28a1.28 1.28 0 00-1.28-1.28h-3.52a1.28 1.28 0 100 2.56h3.52a1.28 1.28 0 001.28-1.28z" fill="url(#paint9_linear)" stroke="url(#paint10_linear)" stroke-width="1.4"/><defs><linearGradient id="paint0_linear" x1="56.5" y1="0" x2="35.64" y2="118.375" gradientUnits="userSpaceOnUse"><stop stop-color="#50CFFA"/><stop offset=".999" stop-color="#52A2ED"/></linearGradient><linearGradient id="paint1_linear" x1="61.001" y1="35" x2="63.869" y2="75.657" gradientUnits="userSpaceOnUse"><stop stop-color="#50CFFA"/><stop offset=".999" stop-color="#52A2ED"/></linearGradient><linearGradient id="paint2_linear" x1="53.501" y1="35.5" x2="53.501" y2="76" gradientUnits="userSpaceOnUse"><stop stop-color="#50CFFA"/><stop offset="1" stop-color="#51A5EE"/></linearGradient><linearGradient id="paint3_linear" x1="62" y1="42.5" x2="73.064" y2="64.068" gradientUnits="userSpaceOnUse"><stop stop-color="#50CFFA"/><stop offset=".999" stop-color="#52A2ED"/></linearGradient><linearGradient id="paint4_linear" x1="65" y1="43.5" x2="65" y2="70" gradientUnits="userSpaceOnUse"><stop stop-color="#50CFFA"/><stop offset="1" stop-color="#51A5EE"/></linearGradient><linearGradient id="paint5_linear" x1="35.482" y1="59.28" x2="41.071" y2="61.619" gradientUnits="userSpaceOnUse"><stop stop-color="#50CFFA"/><stop offset=".999" stop-color="#52A2ED"/></linearGradient><linearGradient id="paint6_linear" x1="35.482" y1="59.28" x2="41.562" y2="59.28" gradientUnits="userSpaceOnUse"><stop stop-color="#50CFFA"/><stop offset="1" stop-color="#51A5EE"/></linearGradient><linearGradient id="paint7_linear" x1="38" y1="48" x2="37.194" y2="51.831" gradientUnits="userSpaceOnUse"><stop stop-color="#50CFFA"/><stop offset=".999" stop-color="#52A2ED"/></linearGradient><linearGradient id="paint8_linear" x1="38.5" y1="48" x2="38.5" y2="55" gradientUnits="userSpaceOnUse"><stop stop-color="#50CFFA"/><stop offset="1" stop-color="#51A5EE"/></linearGradient><linearGradient id="paint9_linear" x1="35.482" y1="68.28" x2="41.071" y2="70.619" gradientUnits="userSpaceOnUse"><stop stop-color="#50CFFA"/><stop offset=".999" stop-color="#52A2ED"/></linearGradient><linearGradient id="paint10_linear" x1="35.482" y1="68.28" x2="41.562" y2="68.28" gradientUnits="userSpaceOnUse"><stop stop-color="#50CFFA"/><stop offset="1" stop-color="#51A5EE"/></linearGradient></defs></svg>