<svg width="28" height="20" viewBox="0 0 28 20" fill="none" xmlns="http://www.w3.org/2000/svg">
<path d="M26.2961 0.0140773C25.962 0.0622321 25.6539 0.221706 25.4218 0.466677C20.372 5.5255 14.9339 11.3605 9.88725 16.4637L2.45567 10.3458C2.14719 10.0934 1.751 9.97368 1.35426 10.0132C0.957525 10.0527 0.592741 10.2482 0.340158 10.5565C0.0875749 10.8649 -0.0321179 11.261 0.00741149 11.6576C0.0469409 12.0541 0.242454 12.4188 0.55094 12.6713L9.04418 19.6632C9.33331 19.8987 9.69989 20.018 10.0723 19.9978C10.4447 19.9776 10.7963 19.8193 11.0582 19.5539C16.418 14.1846 22.2467 7.88155 27.5451 2.57361C27.7717 2.35366 27.9231 2.06775 27.9776 1.75669C28.032 1.44562 27.9868 1.12531 27.8483 0.841487C27.7098 0.557663 27.4851 0.324831 27.2063 0.176243C26.9276 0.0276544 26.609 -0.0291073 26.2961 0.0140773Z" fill="#3D8EE0"/>
</svg>
