<svg width="74" height="77" fill="none" xmlns="http://www.w3.org/2000/svg"><path fill-rule="evenodd" clip-rule="evenodd" d="M74 17.297c0 8.603-6.31 15.74-14.576 17.073v29.24C59.424 71.004 53.4 77 45.97 77H13.454C6.024 77 0 71.004 0 63.609V31.246c0-7.395 6.024-13.39 13.454-13.39h25.797a17.533 17.533 0 01-.009-.559C39.242 7.744 47.023 0 56.622 0 66.218 0 74 7.744 74 17.297zM56.06 34.585c-7.999-.252-14.634-5.885-16.373-13.382H13.455c-5.574 0-10.091 4.497-10.091 10.043V63.61c0 5.546 4.517 10.043 10.09 10.043H45.97c5.573 0 10.09-4.497 10.09-10.043V34.585zm.561-3.339c7.741 0 14.015-6.245 14.015-13.949s-6.274-13.95-14.015-13.95c-7.741 0-14.015 6.246-14.015 13.95 0 7.704 6.274 13.95 14.015 13.95zM55.555 10v11.202l-5.722-4.414-1.834 2.118 8.056 5.81c.278.189.61.284.944.284.334 0 .667-.095.945-.285l8.055-5.809-1.833-2.118-5.833 4.462V10h-2.778zM20.326 36.794s.089-.36.373-.568c.284-.209.68-.205.68-.205h25.097s.894-.1 1.252.28c.357.382.245.907.245.907L43.06 55.749s-.086.439-.482.739c-.397.3-.915.319-.915.319h-11.47l-8.477 6.048s-.408.2-.66.124c-.254-.076-.237-.393-.237-.393l1.507-5.78h-6.168s-.54-.108-.69-.318c-.148-.21-.062-.739-.062-.739l1.525-5.887h-3.932l.472-1.741s.235-.523.592-.783 1.122-.266 1.122-.266h2.472l.47-1.805h-3.94l.477-1.788s.152-.453.521-.696c.37-.244.973-.288.973-.288h2.683l1.485-5.7zm1.496 5.68L22.818 39 43 39.048l1.4.004-.348 1.279-3.693 13.545h-10.45s-.394-.022-.774.09c-.38.11-.64.325-.64.325L24.688 57l.882-3.035-6.57-.089 1.005-4.003h14.676s.684-.062 1.095-.331c.41-.27.648-.813.648-.813l.433-1.675H20.684l.488-1.93H36.05c.164 0 .705-.078 1.105-.328s.571-.72.571-.72l.49-1.601H21.822z" fill="url(#paint0_linear)"/><defs><linearGradient id="paint0_linear" x1="53.224" y1="5.35" x2="35.724" y2="82.059" gradientUnits="userSpaceOnUse"><stop stop-color="#fff" stop-opacity=".599"/><stop offset="1" stop-color="#fff"/></linearGradient></defs></svg>