<svg width="113" height="113" fill="none" xmlns="http://www.w3.org/2000/svg"><path fill-rule="evenodd" clip-rule="evenodd" d="M56.5 113c31.204 0 56.5-25.296 56.5-56.5S87.704 0 56.5 0 0 25.296 0 56.5 25.296 113 56.5 113zm0-4c29.271 0 53-23.505 53-52.5S85.771 4 56.5 4s-53 23.505-53 52.5 23.729 52.5 53 52.5z" fill="url(#paint0_linear)"/><path d="M59.331 58.065c-3.263 0-6.453-.973-9.166-2.796a16.572 16.572 0 01-6.077-7.447 16.68 16.68 0 01-.939-9.588 16.623 16.623 0 014.515-8.496 16.47 16.47 0 018.448-4.54c3.2-.641 6.518-.312 9.533.944a16.52 16.52 0 017.404 6.111 16.655 16.655 0 01-2.056 20.948 16.466 16.466 0 01-11.662 4.864zm0-30.786a14.06 14.06 0 00-7.845 2.394 14.182 14.182 0 00-5.2 6.373 14.276 14.276 0 00-.802 8.206 14.225 14.225 0 003.866 7.27 14.094 14.094 0 007.23 3.884c2.74.547 5.58.265 8.159-.81a14.137 14.137 0 006.335-5.233 14.255 14.255 0 00-1.766-17.923 14.092 14.092 0 00-9.977-4.16z" fill="url(#paint1_linear)" stroke="url(#paint2_linear)" stroke-width="1.4"/><path d="M85.357 62.43a4.513 4.513 0 00-5.649-1.091l-1.302-1.591a3.616 3.616 0 00-4.725-.704l-1.281.851-.77-.922a3.61 3.61 0 00-4.718-.704l-8.694 5.696-9.66-4a9.053 9.053 0 00-9.1 1.31l-12.32 9.856a1.195 1.195 0 00-.463 1.294 1.198 1.198 0 001.053.878 1.183 1.183 0 00.894-.306l12.32-9.856a6.685 6.685 0 016.748-.965l17.08 7.04c.52.235.928.663 1.141 1.194a2.23 2.23 0 010 1.657 2.197 2.197 0 01-2.786 1.261l-11.557-4.534a1.187 1.187 0 00-1.605.65 1.202 1.202 0 00.737 1.575l11.521 4.569a4.632 4.632 0 001.674.316 4.592 4.592 0 003.169-1.278 4.644 4.644 0 001.423-3.122l.133-.07 12.04-7.906a2.173 2.173 0 012.96.633 2.207 2.207 0 01-.51 3L66.8 78.79a8.403 8.403 0 01-7.231 1.246l-13.77-3.9a8.02 8.02 0 00-7.293 1.527l-3.71 3.063a1.198 1.198 0 00-.353 1.32 1.197 1.197 0 001.109.792 1.15 1.15 0 00.749-.268l3.745-3.027a5.655 5.655 0 015.138-1.077l13.734 3.893a10.756 10.756 0 009.226-1.62l16.344-11.63a4.601 4.601 0 00.868-6.68zm-17.2-2.161a1.24 1.24 0 011.618.246l.587.704-7.216 4.78-2.261-.936 7.273-4.794zm-.265 8.778a4.568 4.568 0 00-2.1-1.943l9.163-6.061a1.247 1.247 0 011.617.24l1.106 1.365-9.786 6.4z" fill="url(#paint3_linear)" stroke="url(#paint4_linear)" stroke-width="1.4"/><path d="M59.478 36.333a15.9 15.9 0 013.438.492c.304.084.63.043.904-.114s.475-.417.559-.724a1.203 1.203 0 00-.114-.909 1.191 1.191 0 00-.72-.562 19.525 19.525 0 00-2.877-.514v-1.626a1.2 1.2 0 00-.348-.846 1.187 1.187 0 00-1.683 0 1.2 1.2 0 00-.349.846v1.64c-3.191.437-3.576 2.626-3.576 3.626 0 2.485 2.547 3.52 4.073 4.168l.295.12.448.182c1.54.613 2.212 1 2.212 2.112 0 1.113-.742 1.655-2.192 1.718h-.251a14.087 14.087 0 01-3.976-.964 1.184 1.184 0 00-1.587.666 1.203 1.203 0 00.733 1.565c1.235.474 2.516.818 3.822 1.028v1.612c0 .318.125.622.348.847a1.186 1.186 0 001.683 0 1.2 1.2 0 00.349-.847v-1.668c2.163-.423 3.45-1.866 3.45-3.992 0-2.816-2.324-3.745-3.71-4.301l-.7-.296c-1.092-.45-2.597-1.07-2.597-1.95-.02-.423-.02-1.31 2.366-1.31z" fill="url(#paint5_linear)" stroke="url(#paint6_linear)" stroke-width="1.4"/><defs><linearGradient id="paint0_linear" x1="56.5" y1="0" x2="35.64" y2="118.375" gradientUnits="userSpaceOnUse"><stop stop-color="#50CFFA"/><stop offset=".999" stop-color="#52A2ED"/></linearGradient><linearGradient id="paint1_linear" x1="59.331" y1="24.878" x2="53.172" y2="59.632" gradientUnits="userSpaceOnUse"><stop stop-color="#50CFFA"/><stop offset=".999" stop-color="#52A2ED"/></linearGradient><linearGradient id="paint2_linear" x1="59.331" y1="24.878" x2="59.331" y2="58.065" gradientUnits="userSpaceOnUse"><stop stop-color="#50CFFA"/><stop offset="1" stop-color="#51A5EE"/></linearGradient><linearGradient id="paint3_linear" x1="56.524" y1="57.692" x2="54.522" y2="84.705" gradientUnits="userSpaceOnUse"><stop stop-color="#50CFFA"/><stop offset=".999" stop-color="#52A2ED"/></linearGradient><linearGradient id="paint4_linear" x1="56.524" y1="57.692" x2="56.524" y2="82.839" gradientUnits="userSpaceOnUse"><stop stop-color="#50CFFA"/><stop offset="1" stop-color="#51A5EE"/></linearGradient><linearGradient id="paint5_linear" x1="59.038" y1="31.179" x2="52.727" y2="50.586" gradientUnits="userSpaceOnUse"><stop stop-color="#50CFFA"/><stop offset=".999" stop-color="#52A2ED"/></linearGradient><linearGradient id="paint6_linear" x1="59.038" y1="31.179" x2="59.038" y2="51.046" gradientUnits="userSpaceOnUse"><stop stop-color="#50CFFA"/><stop offset="1" stop-color="#51A5EE"/></linearGradient></defs></svg>