<svg width="113" height="113" fill="none" xmlns="http://www.w3.org/2000/svg"><path fill-rule="evenodd" clip-rule="evenodd" d="M56.5 113c31.204 0 56.5-25.296 56.5-56.5S87.704 0 56.5 0 0 25.296 0 56.5 25.296 113 56.5 113zm0-4c29.271 0 53-23.505 53-52.5S85.771 4 56.5 4s-53 23.505-53 52.5 23.729 52.5 53 52.5z" fill="url(#paint0_linear)"/><path d="M80.382 38H32.586a4.623 4.623 0 00-3.243 1.323A4.481 4.481 0 0028 42.516V70.8c0 1.197.483 2.346 1.343 3.193a4.623 4.623 0 003.244 1.323h47.795a4.623 4.623 0 003.243-1.323A4.481 4.481 0 0084.97 70.8V42.516a4.481 4.481 0 00-1.344-3.193A4.623 4.623 0 0080.382 38zm2.656 32.814a2.57 2.57 0 01-.78 1.842 2.683 2.683 0 01-1.875.758H32.585a2.65 2.65 0 01-1.875-.758 2.572 2.572 0 01-.78-1.842v-.965h53.107v.965zm0-2.866H29.93v-4.992h53.107v4.992zm0-6.893H29.93V42.502a2.572 2.572 0 01.78-1.843 2.682 2.682 0 011.875-.758h47.796a2.681 2.681 0 011.875.758 2.57 2.57 0 01.78 1.842v18.554z" fill="url(#paint1_linear)" stroke="url(#paint2_linear)" stroke-width="1.3"/><path d="M73.023 45.642a4.21 4.21 0 00-2.799 1.071 4.21 4.21 0 00-2.799-1.07c-2.376 0-4.31 1.997-4.31 4.453 0 2.456 1.934 4.454 4.31 4.454a4.21 4.21 0 002.8-1.072 4.21 4.21 0 002.798 1.072c2.377 0 4.31-1.998 4.31-4.454 0-2.456-1.933-4.454-4.31-4.454zm-3.932 6.273a2.274 2.274 0 01-.755.538 2.308 2.308 0 01-.91.195c-1.312 0-2.38-1.145-2.38-2.552s1.068-2.552 2.38-2.552a2.306 2.306 0 011.665.733 4.577 4.577 0 000 3.638zm3.932.733a2.308 2.308 0 01-.91-.195 2.275 2.275 0 01-.755-.538 4.576 4.576 0 000-3.638 2.307 2.307 0 011.666-.733c1.311 0 2.378 1.145 2.378 2.552s-1.067 2.552-2.379 2.552z" fill="url(#paint3_linear)" stroke="url(#paint4_linear)" stroke-width="1.3"/><defs><linearGradient id="paint0_linear" x1="56.5" y1="0" x2="35.64" y2="118.375" gradientUnits="userSpaceOnUse"><stop stop-color="#50CFFA"/><stop offset=".999" stop-color="#52A2ED"/></linearGradient><linearGradient id="paint1_linear" x1="56.484" y1="38" x2="51.893" y2="77.775" gradientUnits="userSpaceOnUse"><stop stop-color="#50C4F6"/><stop offset=".999" stop-color="#51B6F3"/></linearGradient><linearGradient id="paint2_linear" x1="56.484" y1="38" x2="56.484" y2="75.316" gradientUnits="userSpaceOnUse"><stop stop-color="#50C4F6"/><stop offset="1" stop-color="#51B6F3"/></linearGradient><linearGradient id="paint3_linear" x1="70.224" y1="45.642" x2="69.175" y2="55.147" gradientUnits="userSpaceOnUse"><stop stop-color="#50C4F6"/><stop offset=".999" stop-color="#51B6F3"/></linearGradient><linearGradient id="paint4_linear" x1="70.224" y1="45.642" x2="70.224" y2="54.55" gradientUnits="userSpaceOnUse"><stop stop-color="#50C4F6"/><stop offset="1" stop-color="#51B6F3"/></linearGradient></defs></svg>