<svg width="70" height="87" fill="none" xmlns="http://www.w3.org/2000/svg"><path d="M24.571 6H18.43C17.57 6 17 6.6 17 7.5S17.571 9 18.429 9h6.142C25.43 9 26 8.4 26 7.5S25.286 6 24.571 6z" fill="url(#paint0_linear)"/><path d="M21.5 66c2.531 0 4.5-1.969 4.5-4.5 0-2.531-1.969-4.5-4.5-4.5-2.531 0-4.5 1.969-4.5 4.5 0 2.531 2.11 4.5 4.5 4.5zm0-6.188c.984 0 1.688.704 1.688 1.688s-.704 1.688-1.688 1.688-1.688-.704-1.688-1.688c0-.844.844-1.688 1.688-1.688z" fill="url(#paint1_linear)"/><path d="M66.07 19.921H43.66V5.278c0-2.929-2.328-5.271-5.239-5.271H5.24C2.327-.14 0 2.203 0 5.132v59.596C0 67.659 2.328 70 5.24 70h33.18c2.91 0 5.239-2.343 5.239-5.272V47.743h10.042l6.694 7.614c.291.293.873.732 1.6.44.583-.294.874-.733 1.02-1.319l.436-6.589h2.765c2.038 0 3.784-1.757 3.784-3.807V23.728c-.145-2.196-1.892-3.807-3.93-3.807zM2.91 5.131c0-1.317 1.02-2.342 2.33-2.342h33.18c1.31 0 2.328 1.025 2.328 2.343v7.175H2.911V5.132zm37.838 59.744c0 1.318-1.018 2.343-2.328 2.343H5.24c-1.31 0-2.33-1.025-2.33-2.343v-8.64h37.838v8.64zm0-11.568H2.911V15.235h37.837v4.686h-6.694c-2.037 0-3.784 1.757-3.784 3.807v20.354c0 2.05 1.747 3.807 3.784 3.807h6.694v5.418zm26.196-9.372c0 .44-.437.88-.873.88h-4.075c-.728 0-1.456.585-1.456 1.317l-.29 4.54-4.803-5.419a1.568 1.568 0 00-1.019-.439H34.054c-.437 0-.873-.44-.873-.879V23.728c0-.44.437-.878.873-.878h32.017c.436 0 .873.439.873.878v20.207z" fill="url(#paint2_linear)"/><path d="M37.61 30.94l-.08.08c-.4.36-.42.85-.03 1.24l1.81 1.81-1.81 1.81c-.39.39-.37.88.03 1.24l.08.08c.4.36.92.35 1.31-.04l2.45-2.45c.19-.19.29-.4.29-.64 0-.23-.1-.45-.29-.64l-2.45-2.45c-.39-.39-.91-.4-1.31-.04zm11.342.12c0-1.2-.76-1.75-1.89-1.36l-1.17.4c-.57.19-.82.7-.62 1.27.19.53.7.78 1.26.58l.42-.15V36c0 .6.4 1 1 1s1-.4 1-1v-4.94zm.298 2.25c0 2.51 1.07 3.82 3.08 3.82s3.08-1.31 3.08-3.82c0-2.52-1.07-3.83-3.08-3.83s-3.08 1.31-3.08 3.83zm4.16 0c0 1.35-.36 2.02-1.08 2.02-.72 0-1.08-.67-1.08-2.02s.36-2.03 1.08-2.03c.72 0 1.08.68 1.08 2.03zm2.305 0c0 2.51 1.07 3.82 3.08 3.82s3.08-1.31 3.08-3.82c0-2.52-1.07-3.83-3.08-3.83s-3.08 1.31-3.08 3.83zm4.16 0c0 1.35-.36 2.02-1.08 2.02-.72 0-1.08-.67-1.08-2.02s.36-2.03 1.08-2.03c.72 0 1.08.68 1.08 2.03z" fill="#CADFED"/><defs><linearGradient id="paint0_linear" x1="23.473" y1="6.208" x2="23.245" y2="9.336" gradientUnits="userSpaceOnUse"><stop stop-color="#fff" stop-opacity=".599"/><stop offset="1" stop-color="#fff"/></linearGradient><linearGradient id="paint1_linear" x1="23.473" y1="57.625" x2="21.5" y2="66.625" gradientUnits="userSpaceOnUse"><stop stop-color="#fff" stop-opacity=".599"/><stop offset="1" stop-color="#fff"/></linearGradient><linearGradient id="paint2_linear" x1="50.347" y1="4.864" x2="35" y2="74.864" gradientUnits="userSpaceOnUse"><stop stop-color="#fff" stop-opacity=".599"/><stop offset="1" stop-color="#fff"/></linearGradient></defs></svg>