<svg width="23" height="23" fill="none" xmlns="http://www.w3.org/2000/svg"><path d="M22.425 15.597h-5.646V.575A.575.575 0 0016.204 0H.575A.575.575 0 000 .575v18.762c0 .013.003.026.004.04C.046 21.38 1.679 23 3.685 23h15.63C21.347 23 23 21.34 23 19.298v-3.126a.575.575 0 00-.575-.575zm-21.275 3.7V1.15h14.48v14.447H6.795a.575.575 0 00-.575.575v3.126a2.547 2.547 0 01-2.536 2.552 2.547 2.547 0 01-2.535-2.552zm18.165 2.553H6.348a3.695 3.695 0 001.023-2.552v-2.551H21.85v2.55a2.547 2.547 0 01-2.535 2.553z" fill="#fff"/><path d="M3.652 5h9.696c.36 0 .652-.224.652-.5s-.292-.5-.652-.5H3.652C3.292 4 3 4.224 3 4.5s.292.5.652.5zm-.074 6h6.844c.32 0 .578-.224.578-.5s-.259-.5-.578-.5H3.578c-.32 0-.578.224-.578.5s.259.5.578.5zm.074-3h9.696c.36 0 .652-.224.652-.5s-.292-.5-.652-.5H3.652C3.292 7 3 7.224 3 7.5s.292.5.652.5z" fill="#fff"/></svg>