<svg width="113" height="113" fill="none" xmlns="http://www.w3.org/2000/svg"><path fill-rule="evenodd" clip-rule="evenodd" d="M56.5 113c31.204 0 56.5-25.296 56.5-56.5S87.704 0 56.5 0 0 25.296 0 56.5 25.296 113 56.5 113zm0-4c29.271 0 53-23.505 53-52.5S85.771 4 56.5 4s-53 23.505-53 52.5 23.729 52.5 53 52.5z" fill="url(#paint0_linear)"/><path d="M55.822 30.532a25.88 25.88 0 00-5.255.504c-14.06 2.83-23.174 16.58-20.351 30.68 2.823 14.102 16.53 23.264 30.59 20.433 14.06-2.831 23.173-16.6 20.35-30.702a.514.514 0 10-1.004.21c2.716 13.567-6.05 26.76-19.577 29.484-13.527 2.724-26.68-6.068-29.396-19.635-2.716-13.567 6.05-26.76 19.576-29.484a24.957 24.957 0 0119.284 4.074.506.506 0 10.565-.84 25.9 25.9 0 00-14.782-4.725h0zm26.927 4.725a.503.503 0 00-.294.147L55.3 61.968l-9.422-9.24a.503.503 0 00-.86.357c0 .134.054.263.148.357l9.778 9.618a.501.501 0 00.712 0l27.49-26.943a.505.505 0 00-.397-.861h0z" fill="url(#paint1_linear)" stroke="url(#paint2_linear)" stroke-width="2.7"/><defs><linearGradient id="paint0_linear" x1="56.5" y1="0" x2="35.64" y2="118.375" gradientUnits="userSpaceOnUse"><stop stop-color="#50CFFA"/><stop offset=".999" stop-color="#52A2ED"/></linearGradient><linearGradient id="paint1_linear" x1="56.5" y1="30.531" x2="47.123" y2="85.231" gradientUnits="userSpaceOnUse"><stop stop-color="#50CFFA"/><stop offset=".999" stop-color="#52A2ED"/></linearGradient><linearGradient id="paint2_linear" x1="56.5" y1="30.531" x2="56.5" y2="82.663" gradientUnits="userSpaceOnUse"><stop stop-color="#50CFFA"/><stop offset="1" stop-color="#51A5EE"/></linearGradient></defs></svg>