<svg width="339" height="351" fill="none" xmlns="http://www.w3.org/2000/svg"><path opacity=".128" fill-rule="evenodd" clip-rule="evenodd" d="M171 324c88.918 0 161-72.082 161-161S259.918 2 171 2 10 74.082 10 163s72.082 161 161 161z" fill="url(#paint0_linear)"/><path fill-rule="evenodd" clip-rule="evenodd" d="M137.156 68h69.688C218.528 68 228 77.551 228 89.333v149.334c0 11.782-9.472 21.333-21.156 21.333h-69.688C125.472 260 116 250.449 116 238.667V89.333C116 77.551 125.472 68 137.156 68zM207 256c9.389 0 17-7.663 17-17.116V89.116C224 79.663 216.389 72 207 72h-70c-9.389 0-17 7.663-17 17.116v149.768c0 9.453 7.611 17.116 17 17.116h70z" fill="url(#paint1_linear)"/><path fill-rule="evenodd" clip-rule="evenodd" d="M128.125 89h85.75A2.13 2.13 0 01216 91.137v132.726a2.13 2.13 0 01-2.125 2.137h-85.75a2.13 2.13 0 01-2.125-2.137V91.137A2.13 2.13 0 01128.125 89zM130 222h82V93h-82v129z" fill="url(#paint2_linear)"/><path fill-rule="evenodd" clip-rule="evenodd" d="M159 241.021c.012 6.619 5.381 11.979 12 11.979a12 12 0 0012-12.063c-.035-6.619-5.423-11.96-12.042-11.937-6.619.023-11.97 5.401-11.958 12.021zm3.676-3.426a9 9 0 018.324-5.571V232c4.942 0 8.959 3.98 8.999 8.915a8.984 8.984 0 01-5.488 8.372 9.008 9.008 0 01-9.84-1.885 8.98 8.98 0 01-1.995-9.807z" fill="url(#paint3_linear)"/><path d="M140.165 126a2.155 2.155 0 001.528-.625l22.79-22.819a2.156 2.156 0 00-.113-2.925 2.15 2.15 0 00-2.922-.113l-22.811 22.797a2.156 2.156 0 001.528 3.685z" fill="url(#paint4_linear)"/><path d="M140.174 149a2.16 2.16 0 001.534-.627l45.772-45.804a2.163 2.163 0 00-3.047-3.049l-45.794 45.782a2.163 2.163 0 001.535 3.698z" fill="url(#paint5_linear)"/><path d="M165.154 83h16.692c1.19 0 2.154-1.12 2.154-2.5s-.964-2.5-2.154-2.5h-16.692c-1.19 0-2.154 1.12-2.154 2.5s.964 2.5 2.154 2.5z" fill="url(#paint6_linear)"/><path fill-rule="evenodd" clip-rule="evenodd" d="M40 123.256a32.767 32.767 0 009-3.387V138a2 2 0 104 0v-20.749c7.901-6.029 13-15.545 13-26.251 0-18.225-14.775-33-33-33S0 72.775 0 91c0 9.43 3.955 17.936 10.297 23.95A1.99 1.99 0 0010 116v27a2 2 0 104 0v-25.015a32.877 32.877 0 009 4.473V127a2 2 0 104 0v-3.544a33.225 33.225 0 009 .409V159a2 2 0 104 0v-35.744zM33 120c16.016 0 29-12.984 29-29S49.016 62 33 62 4 74.984 4 91s12.984 29 29 29zm-21 29a2 2 0 00-2 2v11a2 2 0 104 0v-11a2 2 0 00-2-2zm39-5a2 2 0 00-2 2v3a2 2 0 104 0v-3a2 2 0 00-2-2zm-28-8a2 2 0 114 0v17a2 2 0 11-4 0v-17zm10.23-31c-5.566.022-10.543-3.163-12.862-8h-3.093C16.571 97 16 96.105 16 95s.57-2 1.275-2h1.871a13.782 13.782 0 01-.11-3h-1.761C16.571 90 16 89.105 16 88s.57-2 1.275-2h2.66a14.027 14.027 0 016.136-7.115c5.557-3.179 12.583-2.27 17.123 2.217a1.3 1.3 0 01.392 1.292c-.12.47-.61.99-1.086 1.106l-.18.046c-.459.12-1.032.27-1.32-.046-2.82-2.814-6.61-3.45-10.5-2.5-3.336.815-5.24 2.226-6.45 5h7.675c.704 0 1.275.895 1.275 2s-.57 2-1.275 2h-8.792a10.751 10.751 0 00.04 3h8.752c.704 0 1.275.895 1.275 2s-.57 2-1.275 2H24.61c.835 1.162 1.965 2.18 3.39 3 4.648 2.678 9.233 1.708 13-2 .312-.346 1.462-.11 1.96-.008L43 98c.472.096.78.726.932 1.178.151.452.047.949-.273 1.305A14.152 14.152 0 0133.229 105z" fill="url(#paint7_linear)"/><path fill-rule="evenodd" clip-rule="evenodd" d="M286.381 51.443A25.843 25.843 0 00294 48.522V63.5a1.5 1.5 0 003 0V46.495c6.087-4.758 10-12.17 10-20.495 0-14.36-11.641-26-26-26s-26 11.64-26 26c0 7.438 3.124 14.147 8.131 18.886a1.496 1.496 0 00-.131.614v22a1.5 1.5 0 003 0V47.24a25.915 25.915 0 007 3.506V54.5a1.5 1.5 0 003 0v-2.98a26.132 26.132 0 007 .404V80.3a1.7 1.7 0 103.4 0V51.7c0-.088-.007-.174-.019-.257zM281 49c12.703 0 23-10.297 23-23S293.703 3 281 3s-23 10.297-23 23 10.297 23 23 23zm-16.5 23a1.5 1.5 0 00-1.5 1.5v9a1.5 1.5 0 003 0v-9a1.5 1.5 0 00-1.5-1.5zm31-4a1.5 1.5 0 00-1.5 1.5v3a1.5 1.5 0 003 0v-3a1.5 1.5 0 00-1.5-1.5zM273 61.5a1.5 1.5 0 013 0v14a1.5 1.5 0 01-3 0v-14zm8.385-24.5c-4.341.017-8.233-2.36-10.145-6h-2.264c-.539 0-.975-.672-.975-1.5s.436-1.5.975-1.5h1.215a10.645 10.645 0 01-.143-3h-1.072c-.539 0-.975-.672-.975-1.5s.436-1.5.975-1.5h1.802a11.08 11.08 0 014.88-5.519c4.445-2.498 10.066-1.783 13.698 1.742.29.256.411.646.314 1.015-.096.37-.488.778-.869.87-.046.01-.094.023-.145.035-.366.095-.824.213-1.055-.036-2.256-2.21-5.287-2.711-8.4-1.964-2.64.633-4.158 1.725-5.128 3.857h5.953c.538 0 .975.672.975 1.5s-.437 1.5-.975 1.5h-6.849a8.238 8.238 0 00.084 3h6.765c.538 0 .975.672.975 1.5s-.437 1.5-.975 1.5h-5.317c.642.794 1.473 1.495 2.492 2.071 3.718 2.104 7.387 1.343 10.4-1.571.249-.272 1.17-.087 1.567-.007l.033.007c.377.076.624.57.745.925.121.356.038.746-.218 1.026-2.142 2.27-5.171 3.56-8.343 3.549z" fill="url(#paint8_linear)"/><path fill-rule="evenodd" clip-rule="evenodd" d="M60.38 311.443a25.857 25.857 0 007.62-2.921V323.5a1.5 1.5 0 003 0v-17.005c6.087-4.758 10-12.17 10-20.495 0-14.359-11.64-26-26-26s-26 11.641-26 26c0 7.438 3.124 14.147 8.13 18.886-.083.188-.13.395-.13.614v22a1.5 1.5 0 003 0v-20.261a25.883 25.883 0 007 3.507v3.754a1.5 1.5 0 003 0v-2.98a26.146 26.146 0 007 .404V340.3a1.7 1.7 0 103.4 0v-28.6c0-.088-.007-.173-.02-.257zM55 309c12.703 0 23-10.297 23-23s-10.297-23-23-23-23 10.297-23 23 10.297 23 23 23zm-16.5 23a1.5 1.5 0 00-1.5 1.5v9a1.5 1.5 0 003 0v-9a1.5 1.5 0 00-1.5-1.5zm31-4a1.5 1.5 0 00-1.5 1.5v3a1.5 1.5 0 003 0v-3a1.5 1.5 0 00-1.5-1.5zM47 321.5a1.5 1.5 0 013 0v14a1.5 1.5 0 01-3 0v-14zm8.385-24.5c-4.34.017-8.233-2.36-10.145-6h-2.264c-.538 0-.975-.672-.975-1.5s.437-1.5.975-1.5h1.215a10.648 10.648 0 01-.143-3h-1.072c-.538 0-.975-.672-.975-1.5s.437-1.5.975-1.5h1.802a11.082 11.082 0 014.88-5.519c4.445-2.498 10.066-1.783 13.698 1.742.29.256.41.646.314 1.015-.096.369-.488.778-.869.869l-.145.037c-.366.094-.824.212-1.055-.037-2.256-2.211-5.288-2.711-8.4-1.964-2.64.633-4.158 1.725-5.128 3.857h5.953c.538 0 .975.672.975 1.5s-.437 1.5-.975 1.5h-6.85a8.23 8.23 0 00.085 3h6.765c.538 0 .975.672.975 1.5s-.437 1.5-.975 1.5h-5.317c.642.794 1.473 1.495 2.492 2.071 3.718 2.104 7.387 1.342 10.4-1.571.25-.272 1.17-.087 1.568-.007l.032.007c.377.076.624.57.745.925.121.355.038.746-.218 1.026-2.142 2.271-5.171 3.559-8.343 3.549z" fill="url(#paint9_linear)"/><path fill-rule="evenodd" clip-rule="evenodd" d="M310 304.133a36.775 36.775 0 0011-4.377V321a2 2 0 104 0v-24.015c8.53-6.778 14-17.243 14-28.985 0-20.435-16.565-37-37-37s-37 16.565-37 37c0 10.846 4.667 20.602 12.101 27.369A2.029 2.029 0 00277 296v31a2 2 0 104 0v-28.533a36.827 36.827 0 0010 4.87V309a2 2 0 104 0v-4.661c2.267.434 4.607.661 7 .661 1.351 0 2.686-.072 4-.214V346a2 2 0 104 0v-41.867zM302 301c18.225 0 33-14.775 33-33s-14.775-33-33-33-33 14.775-33 33 14.775 33 33 33zm-23 32a2 2 0 00-2 2v14a2 2 0 104 0v-14a2 2 0 00-2-2zm44-5a2 2 0 00-2 2v4a2 2 0 104 0v-4a2 2 0 00-2-2zm-32-10a2 2 0 114 0v21a2 2 0 11-4 0v-21zm11.506-34c-6.4.025-12.129-3.552-14.849-9h-2.307c-.746 0-1.35-.895-1.35-2s.604-2 1.35-2h.943a15.537 15.537 0 01-.261-4h-.682c-.746 0-1.35-1.119-1.35-2.5s.604-2.5 1.35-2.5h1.851c1.338-3.218 3.747-6.012 7.001-7.846 6.446-3.633 14.596-2.593 19.863 2.534.42.373.595.94.455 1.477-.14.536-.708 1.131-1.26 1.264a10.85 10.85 0 00-.21.053c-.531.137-1.195.308-1.53-.053-3.271-3.216-7.667-3.944-12.18-2.858-3.752.904-5.942 2.447-7.352 5.429h8.662c.746 0 1.35 1.119 1.35 2.5s-.604 2.5-1.35 2.5h-10.105a11.852 11.852 0 00.203 4h9.902c.746 0 1.35.895 1.35 2s-.604 2-1.35 2h-8.036c.957 1.268 2.233 2.381 3.826 3.286 5.391 3.06 10.711 1.952 15.08-2.286.361-.395 1.696-.126 2.273-.01l.047.01c.547.11.905.83 1.081 1.346a1.492 1.492 0 01-.317 1.491c-3.105 3.303-7.498 5.178-12.098 5.163z" fill="url(#paint10_linear)"/><defs><linearGradient id="paint0_linear" x1="-297.461" y1="-209.012" x2="-7.097" y2="469.182" gradientUnits="userSpaceOnUse"><stop stop-color="#50D3FB"/><stop offset="1" stop-color="#528EE7"/></linearGradient><linearGradient id="paint1_linear" x1="152.328" y1="21.913" x2="54.433" y2="192.552" gradientUnits="userSpaceOnUse"><stop stop-color="#50D2FB"/><stop offset="1" stop-color="#52A2ED"/></linearGradient><linearGradient id="paint2_linear" x1="155.193" y1="56.115" x2="89.738" y2="184.603" gradientUnits="userSpaceOnUse"><stop stop-color="#50D2FB"/><stop offset="1" stop-color="#52A2ED"/></linearGradient><linearGradient id="paint3_linear" x1="167.109" y1="223.239" x2="158.853" y2="248.937" gradientUnits="userSpaceOnUse"><stop stop-color="#50D2FB"/><stop offset="1" stop-color="#52A2ED"/></linearGradient><linearGradient id="paint4_linear" x1="146.758" y1="92.519" x2="137.159" y2="121.201" gradientUnits="userSpaceOnUse"><stop stop-color="#50D2FB"/><stop offset="1" stop-color="#52A2ED"/></linearGradient><linearGradient id="paint5_linear" x1="154.218" y1="86.998" x2="136.443" y2="140.112" gradientUnits="userSpaceOnUse"><stop stop-color="#50D2FB"/><stop offset="1" stop-color="#52A2ED"/></linearGradient><linearGradient id="paint6_linear" x1="170.315" y1="76.84" x2="169.868" y2="82.444" gradientUnits="userSpaceOnUse"><stop stop-color="#50D2FB"/><stop offset="1" stop-color="#49CAFB"/></linearGradient><linearGradient id="paint7_linear" x1="33" y1="58" x2="3" y2="164" gradientUnits="userSpaceOnUse"><stop stop-color="#50CFFA"/><stop offset=".999" stop-color="#52A2ED"/></linearGradient><linearGradient id="paint8_linear" x1="281" y1="0" x2="257.109" y2="83.927" gradientUnits="userSpaceOnUse"><stop stop-color="#50CFFA"/><stop offset=".999" stop-color="#52A2ED"/></linearGradient><linearGradient id="paint9_linear" x1="55" y1="260" x2="31.109" y2="343.928" gradientUnits="userSpaceOnUse"><stop stop-color="#50CFFA"/><stop offset=".999" stop-color="#52A2ED"/></linearGradient><linearGradient id="paint10_linear" x1="302" y1="231" x2="267.758" y2="350.827" gradientUnits="userSpaceOnUse"><stop stop-color="#50CFFA"/><stop offset=".999" stop-color="#52A2ED"/></linearGradient></defs></svg>