<svg width="44" height="34" fill="none" xmlns="http://www.w3.org/2000/svg"><path fill-rule="evenodd" clip-rule="evenodd" d="M9.679.273c-.357.262-.469.716-.469.716L7.344 8.168H3.97s-.758.055-1.222.362c-.465.306-.655.877-.655.877l-.601 2.252h4.955l-.592 2.272H2.748s-.962.007-1.41.335c-.45.328-.746.986-.746.986L0 17.445h4.942l-1.916 7.413s-.11.666.078.93.866.401.866.401h7.754L9.83 33.468s-.02.4.297.495c.319.096.83-.156.83-.156l10.657-7.616h14.42s.652-.024 1.15-.402c.498-.378.607-.93.607-.93L43.966 1.51s.141-.66-.308-1.14c-.449-.48-1.573-.354-1.573-.354h-31.55s-.499-.005-.856.258zm2.982 2.716l-1.216 4.633h20.008l-.598 2.134s-.21.627-.698.961c-.488.334-1.149.438-1.348.438H10.652l-.597 2.572h19.74l-.529 2.234s-.29.725-.79 1.084c-.502.358-1.338.44-1.338.44H9.228L8 22.825l8.019.117-1.076 4.047 4.645-3.613s.317-.285.78-.434c.465-.148.945-.118.945-.118h12.755l4.506-18.06L39 3.057l-1.709-.005-24.63-.064z" fill="url(#paint0_linear)"/><defs><linearGradient id="paint0_linear" x1="31.638" y1="2.361" x2="25.773" y2="36.986" gradientUnits="userSpaceOnUse"><stop stop-color="#50CFFA"/><stop offset="1" stop-color="#52A2ED"/></linearGradient></defs></svg>