<svg width="182" height="38" fill="none" xmlns="http://www.w3.org/2000/svg"><path fill-rule="evenodd" clip-rule="evenodd" d="M10.779.305c-.398.293-.522.8-.522.8L8.18 9.129H4.42s-.844.062-1.36.404c-.518.343-.73.98-.73.98l-.67 2.517h5.52l-.658 2.54H3.06s-1.072.008-1.572.374c-.5.367-.83 1.102-.83 1.102L0 19.497h5.504L3.37 27.782s-.122.745.087 1.04c.209.296.964.449.964.449h8.635l-2.11 8.133s-.022.447.332.554c.355.107.925-.175.925-.175l11.867-8.512h16.06s.726-.027 1.28-.449a1.89 1.89 0 00.676-1.04l6.878-26.095S49.12.948 48.62.412c-.5-.537-1.752-.395-1.752-.395H11.732s-.556-.005-.953.288zm3.483 3.682l-1.373 5.02h22.59l-.676 2.312s-.235.68-.786 1.04c-.552.362-1.298.475-1.523.475h-20.5l-.673 2.787h22.286l-.597 2.42s-.327.785-.893 1.174c-.565.388-1.51.477-1.51.477h-20.22L9 25.476l9.054.128-1.215 4.383 5.244-3.913s.358-.31.882-.47c.524-.161 1.066-.128 1.066-.128h14.4L43.52 5.91 44 4.062l-1.929-.005-27.809-.07z" fill="url(#paint0_linear)"/><path fill-rule="evenodd" clip-rule="evenodd" d="M58 14.798c0-4.208 2.55-6.81 7.074-6.81 3.537 0 5.742 1.532 6.706 4.256.23.706.07 1.07-.62 1.314l-2.457.924c-.712.219-.988.097-1.24-.657-.414-1.095-1.103-1.58-2.39-1.58-1.813 0-2.525.826-2.525 2.529V19.2c0 1.703.712 2.53 2.526 2.53 1.286 0 2.021-.536 2.389-1.582.275-.754.55-.924 1.24-.656l2.457.924c.69.243.85.608.62 1.313-.964 2.725-3.17 4.257-6.706 4.257-4.525 0-7.074-2.602-7.074-6.81v-4.379zm29.903 9.827c.23.657.023.997-.666.997h-2.48c-1.195 0-1.539-.267-1.723-1.021l-.528-1.752h-4.96l-.53 1.752c-.229.754-.527 1.021-1.676 1.021h-2.41c-.712 0-.85-.34-.62-.997l5.28-15.421c.23-.706.528-.852 1.194-.852h2.619c.666 0 .964.17 1.194.803l5.305 15.47zm-7.28-8.44c-.46-1.654-.506-3.406-.506-3.406h-.23s.024 1.752-.436 3.381l-.85 2.87h2.871l-.85-2.845zm8.015-2.75c0-3.21 2.435-5.448 6.822-5.448 3.399 0 5.328 1.07 6.407 3.406.322.705.138 1.07-.551 1.362L99.019 13.8c-.62.292-.872.194-1.24-.511-.436-.924-1.263-1.265-2.32-1.265-1.561 0-2.181.414-2.181 1.265 0 1.046 1.355 1.265 3.008 1.484 2.665.389 6.11 1.07 6.11 5.667 0 3.576-3.055 5.546-7.12 5.546-3.422 0-5.81-1.24-6.684-3.77-.252-.73-.046-1.07.62-1.338l2.16-.827c.688-.243 1.01-.17 1.354.535.414.852 1.31 1.29 2.596 1.29 1.538 0 2.457-.341 2.457-1.387 0-.949-1.171-1.216-2.687-1.435-2.687-.39-6.454-.9-6.454-5.62zm27.951-5.107c.712 0 .965.267.965 1.046V24.6c0 .754-.253 1.021-.965 1.021h-2.618c-.712 0-.965-.267-.965-1.021v-5.595h-4.455V24.6c0 .754-.23 1.021-.965 1.021h-2.595c-.735 0-.988-.267-.988-1.021V9.374c0-.779.253-1.046.988-1.046h2.595c.735 0 .965.267.965 1.046v5.375h4.455V9.374c0-.779.253-1.046.965-1.046h2.618zm15.848 10.119c.712 0 .964.267.964 1.021v1.703c0 .754-.252 1.022-.964 1.022h-1.172V24.6c0 .754-.252 1.021-.964 1.021h-2.366c-.735 0-.964-.267-.964-1.021v-2.408h-6.959c-.712 0-.965-.268-.965-1.022v-1.605c0-.803.046-1.095.505-1.654l6.982-8.83c.46-.56.735-.73 1.493-.73h2.274c.712 0 .964.268.964 1.022v9.073h1.172zm-5.466 0v-4.111l-3.216 4.11h3.216zm7.464-5.011c0-3.21 2.434-5.449 6.821-5.449 3.399 0 5.329 1.07 6.408 3.406.322.705.138 1.07-.551 1.362l-2.297 1.046c-.62.292-.873.194-1.24-.511-.437-.924-1.263-1.265-2.32-1.265-1.562 0-2.182.414-2.182 1.265 0 1.046 1.355 1.265 3.009 1.484 2.664.389 6.109 1.07 6.109 5.667 0 3.576-3.054 5.546-7.12 5.546-3.422 0-5.81-1.24-6.683-3.77-.253-.73-.046-1.07.62-1.338l2.159-.827c.689-.243 1.011-.17 1.355.535.413.852 1.309 1.29 2.595 1.29 1.539 0 2.458-.341 2.458-1.387 0-.949-1.171-1.216-2.687-1.435-2.687-.39-6.454-.9-6.454-5.62zm31.029-5.108c.735 0 .987.243.987 1.021v15.276c0 .754-.252.997-.987.997h-2.504c-.735 0-.964-.243-.964-.997v-3.478c0-1.606.137-3.138 1.01-6.373h-.253c-.229.803-1.056 3.016-1.538 4.013l-1.286 2.749c-.253.486-.483.705-1.103.705h-1.539c-.62 0-.849-.17-1.102-.705l-1.355-2.749c-.483-.924-1.195-3.162-1.424-4.013h-.23c.827 3.502.942 4.719.942 6.397v3.454c0 .754-.253.997-.988.997h-2.342c-.735 0-.988-.243-.988-.997V9.35c0-.778.253-1.021.988-1.021h2.158c.804 0 1.034.146 1.356.754l3.789 7.881 3.79-7.857c.321-.657.528-.778 1.286-.778h2.297zm2.779 5.108c0-3.21 2.434-5.449 6.821-5.449 3.399 0 5.328 1.07 6.408 3.406.321.705.138 1.07-.551 1.362l-2.297 1.046c-.62.292-.873.194-1.24-.511-.437-.924-1.264-1.265-2.32-1.265-1.562 0-2.182.414-2.182 1.265 0 1.046 1.355 1.265 3.009 1.484 2.664.389 6.109 1.07 6.109 5.667 0 3.576-3.055 5.546-7.12 5.546-3.422 0-5.811-1.24-6.683-3.77-.253-.73-.046-1.07.62-1.338l2.159-.827c.689-.243 1.01-.17 1.355.535.413.852 1.309 1.29 2.595 1.29 1.539 0 2.458-.341 2.458-1.387 0-.949-1.172-1.216-2.688-1.435-2.687-.39-6.453-.9-6.453-5.62z" fill="url(#paint1_linear)"/><defs><linearGradient id="paint0_linear" x1="35.233" y1="2.639" x2="28.656" y2="41.329" gradientUnits="userSpaceOnUse"><stop stop-color="#fff" stop-opacity=".599"/><stop offset="1" stop-color="#fff"/></linearGradient><linearGradient id="paint1_linear" x1="147.187" y1="9.238" x2="146.587" y2="28.084" gradientUnits="userSpaceOnUse"><stop stop-color="#fff" stop-opacity=".599"/><stop offset="1" stop-color="#fff"/></linearGradient></defs></svg>